<?xml version="1.0" encoding="utf-8"?>
<!-- Generator: Adobe Illustrator 22.1.0, SVG Export Plug-In . SVG Version: 6.00 Build 0)  -->
<svg version="1.1" id="Layer_1" xmlns="http://www.w3.org/2000/svg" xmlns:xlink="http://www.w3.org/1999/xlink" x="0px" y="0px"
	 viewBox="0 0 600 600" style="enable-background:new 0 0 600 600;" xml:space="preserve">
<style type="text/css">
	.st0{fill:#2A232B;}
	.st1{fill:#FFD0BC;}
	.st2{fill:#FFE2D6;}
	.st3{fill:#F0B399;}
	.st4{fill:none;stroke:#D17F5B;stroke-width:1.5;}
	.st5{fill:url(#SvgjsPath3862_1_);}
	.st6{fill:#F3F1F3;}
	.st7{fill:#131111;}
	.st8{fill:#F3F1F4;}
	.st9{fill:#CFC8D7;}
	.st10{fill:#E1E0E1;}
	.st11{fill:#386E77;}
	.st12{fill:#265E68;}
	.st13{fill:#184F58;}
	.st14{fill:#4D7E86;}
	.st15{fill:#0C4049;}
	.st16{fill:#FFD0BC;stroke:#D17F5B;stroke-width:1.5;}
	.st17{fill:#D17F5B;}
	.st18{fill:#F7C1AA;}
	.st19{fill:url(#SvgjsPath3643_1_);}
	.st20{fill:#66724E;}
	.st21{opacity:0.7;fill:url(#SvgjsPath3780_1_);enable-background:new    ;}
	.st22{opacity:0.4;fill:url(#SvgjsPath3784_1_);enable-background:new    ;}
	.st23{opacity:0.9;enable-background:new    ;}
	.st24{opacity:0.5;fill:url(#SvgjsPath3790_1_);enable-background:new    ;}
	.st25{opacity:0.5;fill:url(#SvgjsPath3794_1_);enable-background:new    ;}
	.st26{opacity:0.75;fill:url(#SvgjsPath3798_1_);enable-background:new    ;}
	.st27{fill:url(#SvgjsPath3666_1_);}
	.st28{fill:url(#SvgjsPath3671_1_);}
	.st29{fill:#09152E;}
	.st30{fill:url(#SvgjsPath3650_1_);}
	.st31{opacity:0.7;fill:url(#SvgjsPath3803_1_);enable-background:new    ;}
	.st32{opacity:0.4;fill:url(#SvgjsPath3807_1_);enable-background:new    ;}
	.st33{opacity:0.5;fill:url(#SvgjsPath3813_1_);enable-background:new    ;}
	.st34{opacity:0.5;fill:url(#SvgjsPath3817_1_);enable-background:new    ;}
	.st35{opacity:0.75;fill:url(#SvgjsPath3821_1_);enable-background:new    ;}
	.st36{fill:url(#SvgjsPath3686_1_);}
	.st37{fill:url(#SvgjsPath3691_1_);}
	.st38{fill:url(#SvgjsPath2885_1_);}
	.st39{fill:url(#SvgjsPath2889_1_);}
	.st40{fill:#1B141C;}
	.st41{fill:#0C080C;}
	.st42{opacity:0.2;fill:#FFFFFF;enable-background:new    ;}
	.st43{opacity:0.4;fill:#FFFFFF;enable-background:new    ;}
	.st44{fill:#26120B;}
	.st45{fill:#351D15;}
	.st46{display:none;opacity:0.5;fill:#ECF0F1;enable-background:new    ;}
</style>
<g id="svga-group-wrapper" transform="scale(3 3)">
	<g id="svga-group-backs-single">
	</g>
	<g id="svga-group-subwrapper">
		<g id="svga-group-hair-back">
			<path id="SvgjsPath3871" class="st0" d="M100.5,100.5h-1v-1h1V100.5z"/>
		</g>
		<g id="svga-group-humanbody-single">
			<path id="SvgjsPath2893" class="st1" d="M195.4,199.8c-2.2-4.7-8.2-11.8-14.9-13.7c-8.2-2.4-26.8-5.3-33.7-6.9
				c-5.5-1.3-16.7-11.3-20.6-14.6c-0.7-0.6-1.3-1.8-1.3-2.8c-0.1-10.9,4.2-39.7,4.2-39.7H100H70.8c0,0,4.3,28.9,4.2,39.7
				c0,0.9-0.6,2.2-1.3,2.8c-3.9,3.4-15,13.4-20.6,14.6c-6.9,1.6-25.5,4.6-33.7,7c-6.7,1.9-12.7,8.9-14.9,13.6
				c-3.7,8-4.6,22.5-4.6,35h100h100C200,222.3,199.1,207.8,195.4,199.8z"/>
			<path id="SvgjsPath2894" class="st2" d="M159.2,184.1c24.3,3.5,34.6,8.7,37.8,50.7h3c0-12.5-0.9-27-4.6-35
				c-2.2-4.7-8.2-11.8-14.9-13.7c-8.2-2.4-26.8-5.3-33.7-6.9c-5.5-1.3-18.2-12.1-21.6-16.4c3.4,4.7,12.8,15.6,21.1,18.5
				C150.2,182.6,153.5,183.2,159.2,184.1z M53.8,181.2c8.3-2.9,17.7-13.8,21.1-18.5c-3.4,4.3-16.1,15.1-21.6,16.4
				c-6.9,1.6-25.5,4.6-33.7,7c-6.7,1.9-12.7,8.9-14.9,13.6c-3.7,8-4.6,22.5-4.6,35h3c3.2-41.7,13.5-47.2,37.8-50.7
				C46.5,183.2,49.8,182.6,53.8,181.2z"/>
			<path id="SvgjsPath2895" class="st3" d="M95.6,197.6c0,0-5.1-1.6-7.1-2.4c-10.4-4-44.4-6.6-44.4-6.6s35.8,1.4,43.6,2.8
				c-0.5-4.8-3-20-3-20s5.1,16.8,6.4,21.1C91.9,194.7,95.6,197.6,95.6,197.6z M106.4,196.3c-0.1,0.1-0.2,0.2-0.3,0.3
				C106.3,196.5,106.4,196.4,106.4,196.3z M95.6,197.6c0,0,2.9,3,4.3,3c1.9,0.1,4.8-2.9,6.2-4.1c-1.3,1-4.2,1.4-5.3,1.4
				C99.5,198,95.6,197.6,95.6,197.6z M116.7,190.1c-1.5,0.2-4.4,0.8-4.4,0.8l2.3-14.9c-0.6,3.1-4.5,16.2-8.1,20.3
				c1.9-1.6,6.2-2.4,8.3-2.7c10.2-1.5,10.2-1.5,41.1-4.9C155.8,188.6,126.8,188.5,116.7,190.1z"/>
			<path id="SvgjsPath2896" class="st4" d="M195.4,199.8c-2.2-4.7-8.2-11.8-14.9-13.7c-8.2-2.4-26.8-5.3-33.7-6.9
				c-5.5-1.3-16.7-11.3-20.6-14.6c-0.7-0.6-1.3-1.8-1.3-2.8c-0.1-10.9,4.2-39.7,4.2-39.7H100H70.8c0,0,4.3,28.9,4.2,39.7
				c0,0.9-0.6,2.2-1.3,2.8c-3.9,3.4-15,13.4-20.6,14.6c-6.9,1.6-25.5,4.6-33.7,7c-6.7,1.9-12.7,8.9-14.9,13.6
				c-3.7,8-4.6,22.5-4.6,35h100h100C200,222.3,199.1,207.8,195.4,199.8z"/>
		</g>
		<g id="svga-group-chinshadow-single">
			
				<linearGradient id="SvgjsPath3862_1_" gradientUnits="userSpaceOnUse" x1="32.2224" y1="164.4444" x2="32.2224" y2="208.4444" gradientTransform="matrix(3 0 0 -3 3.3333 665.3333)">
				<stop  offset="0" style="stop-color:#F0B399;stop-opacity:0.8"/>
				<stop  offset="0.7" style="stop-color:#D17F5B"/>
			</linearGradient>
			<path id="SvgjsPath3862" class="st5" d="M74.9,164.3c7.2,4.6,15.9,7.5,25.2,7.5c9.3,0,17.9-2.9,25.1-7.5
				c-0.5-0.8-0.9-1.8-0.9-2.6c-0.1-7.1,1.7-21.6,3-31c-15.6-3.1-38.8-3.1-54.4,0c1.3,9.4,3,23.9,3,31
				C75.8,162.6,75.4,163.6,74.9,164.3z"/>
		</g>
		<g id="svga-group-clothes-single">
			<path id="SvgjsPath3896" class="st6" d="M128.9,238H70.7v-56.2c22.2,4.7,36.9,4.3,58.1,0L128.9,238L128.9,238z"/>
			<path id="SvgjsPath3897" class="st7" d="M107.4,237.7c-2.8,0-10.7,0.2-16.5-0.2l0-0.2c-0.8-18.7,1.1-30.7,4.5-39.3l0-0.1
				l-0.1-0.1c-0.9-0.9-2.4-1.9-4-3c-1.6-1.1-3.3-2.2-4.3-3.2c0.6-0.7,1.4-1.5,2.3-2.2c0.2-0.1,1.2-0.8,6-5c0.2-0.2,0.3-0.3,0.4-0.3
				c0.8-0.2,2.1-0.3,3.7-0.3c2.2,0,4.7,0.2,6.5,0.6c1.6,1.5,3.5,5.3,4.2,7.2c-1,2.3-2.1,3.1-3.7,4.3c-0.8,0.6-1.7,1.2-2.7,2.1
				l-0.1,0.1l0,0.1c4,20.3,4,25.1,4,29.6c0,2,0,6.6,0.3,10C107.9,237.7,107.7,237.7,107.4,237.7z"/>
			<path id="SvgjsPath3898" d="M110.3,191.5c-0.8-2-2.7-5.9-4.3-7.4c-2.9-0.6-8-0.8-10.5-0.2c-0.1,0.1-6.2,5.4-6.3,5.3
				c-0.9,0.7-1.8,1.5-2.5,2.4c2.1,2.1,6.7,4.6,8.5,6.4c-3.7,9.2-5.3,21.6-4.6,39.4c0,0.1,0,0.2,0,0.3c6.8,0.5,16.5,0.3,17.5,0.2
				c-1.2-11.3,1.4-10.5-4.4-39.9C107,195.2,108.9,195,110.3,191.5z M105.1,210.5c0-0.1,0-0.1-0.1-0.1c2,10.6,1.4,18.6,2.9,27
				c-4.7-0.3-12-0.1-16.8-0.1c0.4-7.2,1.2-31.7,4.7-39.7c0.2,0,0.3-0.1,0.5-0.1l-1,34.7l2.7-35.1c0,0,0,0,0.1,0l1.8,32.6l0.4-32.7
				c0,0,0.1,0,0.1,0l4.2,36.4l-2.3-36.1c0.3,0.1,0.6,0.1,0.9,0.2c0,0,0.1,0,0.1,0C103.5,198.5,104.4,205.9,105.1,210.5z
				 M104.2,196.7c-2.8-1.3-6.4-1-9.1,0.2c-1.7-1.8-4.1-3.1-7.5-5.4c0.6-0.5,1.3-1.1,2.2-1.8c0.1,0,3.5-2.8,3.5-2.8
				c0.9-0.8,1.7-1.8,2.5-2.6c2.9-0.1,7.2,0,9.8,0.1c1.5,1.9,2.9,4.7,4,6.9C107.7,194.3,105.8,195.5,104.2,196.7z"/>
			<path id="SvgjsPath3899" class="st8" d="M78.2,213.1c-11.5-40.1-6.3-29.6-9.4-45.3c2-4.8,4-10.4,5-11.6l0.1-0.1
				c2.3,24,9,13.6,23.8,27.7C89.2,189.4,81.4,204.1,78.2,213.1z M131.2,167.8c-1.4-3.7-4.1-9.1-5.2-10.3
				c1.4,20.7-15.1,16.6-24.3,26.2c8.8,5.7,17.2,20.7,20.2,29.5C134.9,169.6,127.8,188.7,131.2,167.8z"/>
			<path id="SvgjsPath3900" class="st9" d="M125.8,157c0,5.1-0.4,9.2-1.3,10.3c-2.4,5.8-13.1,9.9-16.4,11.5
				c-2.5,1.2-4.9,2.8-6.8,4.9c3.8,2.5,5.7,3.4,12.9,14.4c4.2,7.1,6.5,12.4,7.6,15.6c13.4-44.3,6.2-25,9.6-46
				C129.8,163.6,126.8,157.9,125.8,157z M129.4,176.5c-2,18.1-3.5,14.5-7.7,34.2c-2.7-8.6-11.1-22.9-19.4-27.1c3.9-3,5-3.1,9.7-5.3
				c14.4-6.4,15-12.4,14.1-20.3c1.2,1.4,3.1,6.2,4.7,9.5C130,170.7,129.6,175.2,129.4,176.5z M79.2,171.9c-4.4-3.6-3.2-8.2-5.2-16.2
				c-0.9,1-3.1,6.6-5.4,12.1c0.6,2.8,0.7,7.4,0.8,8.8c0.6,12.2,1.8,12.8,8.8,37.2c3-8.9,11.6-24.4,20.2-30
				C91.5,177.4,82.8,175,79.2,171.9z M84.7,197.4c-2.2,3.7-4.5,7.5-6.4,13.3c-4.4-20.3-6-17-7.7-34.2c-0.3-3-0.6-6-1.4-9
				c1.6-3.6,4-10.3,4.7-11c1.4,7.1,0.1,13.5,5.7,17c2.6,2,11.1,5.3,17.5,10.4C93.2,186.2,91.1,187.6,84.7,197.4z"/>
			<path id="SvgjsPath3901" class="st10" d="M120.3,209.8l-1.2-2.7c0,0,9.1-28.2,10.7-36.2C130.8,179.3,120.3,209.8,120.3,209.8z
				 M78.9,208.7l1.4-3.3c0,0-8.6-26.5-10.2-34.5C69.2,179.3,78.9,208.7,78.9,208.7z"/>
			<path id="SvgjsPath3902" class="st11" d="M124.8,195.6c7.1-20.8,2.8-22.6,6.3-29.5c0.1-0.3,1.4,1,1.5,1.6
				c1.3,5.7,53.3,17.3,55,18.6c1.5,1.1,5.6,3.1,5.6,3.1c4.9,9.1,7.8,10.7,9.1,35c0.1,3.1-0.1,11.8-0.1,14.1l-85.6-0.7
				C117,230.2,118,216.1,124.8,195.6z M75.2,195.6c-7.1-20.8-2.8-22.6-6.3-29.5c-0.1-0.3-1.4,1-1.5,1.6c-1.3,5.7-53.3,17.3-55,18.6
				c-1.5,1.1-5.7,3.1-5.7,3.1c-4.9,9.1-7.8,10.7-9.1,35c-0.1,3.1,0.1,11.8,0.1,14.1l85.6-0.7C83,230.2,82,216.1,75.2,195.6z"/>
			<path id="SvgjsPath3903" class="st12" d="M130.3,190c-4.6,16.4-10.8,31.1-13.5,48c-0.9,0,1.5-22.7,8-42.4
				c7.1-20.8,2.8-22.6,6.3-29.5c0.1-0.1-0.6,2-0.2,2.4C130.7,176.3,132.6,182.3,130.3,190z M69.7,190c4.6,16.4,10.8,31.1,13.5,48
				c0.9,0-1.5-22.7-8-42.4c-7.1-20.8-2.8-22.6-6.3-29.5c-0.1-0.1,0.6,2,0.2,2.4C69.3,176.3,67.4,182.3,69.7,190z"/>
			<path id="SvgjsPath3904" class="st13" d="M152.4,186c0,0-2.3,2.6-8.6,6.9c5.3-5.9,7.8-8.2,7.8-8.2L152.4,186z M154.6,197.9
				l-1.5-1.4c-4.5,13.8-7.6,20.6-12.8,36.6C147.8,218.8,149.6,213.7,154.6,197.9z M48.4,184.7c0,0,2.4,2.4,7.8,8.2
				c-6.4-4.4-8.6-6.9-8.6-6.9L48.4,184.7z M59.7,233.2c-5.3-16-8.3-22.8-12.8-36.6l-1.5,1.4C50.4,213.7,52.2,218.8,59.7,233.2z"/>
			<path id="SvgjsPath3905" class="st14" d="M179.4,219.3c0-11.6,3.1-18.4,9.6-28.1c0.6,0.4,0.9,0.5,1.3,0.9
				C183.5,200.7,182.1,208.7,179.4,219.3z M141.3,230.7c6.1-16.7,8.1-23.2,12.1-34.4c-1.1-0.4-8.7-3-9.8-3.3c0.4,1,3.1,1.8,7.8,4.7
				C151.4,197.7,146.3,213.1,141.3,230.7z M149.5,184.6c0,0-3.4,4.1-6.7,8.3c3.4-2.7,5.7-5.6,8.7-8.2c-4-3.4-10.5-8.5-14.7-12.1
				C140.2,176.2,149.5,184.6,149.5,184.6z M202.1,238.6l0.3,0c0-2.3,0.2-11.1,0.1-14.1c-1.4-24.3-4.2-25.9-9.1-35
				c0,0-4.2-2.1-5.6-3.1c-1.3-1-38.8-9.9-52.5-15.9c16,11,46.3,15,55.2,21.6C194.7,195.2,200.5,222.3,202.1,238.6z M9.6,192
				c0.5-0.4,0.6-0.4,1.2-0.7c6.5,9.8,9.8,16.4,9.8,28C17.9,208.7,16.1,200.3,9.6,192z M48.6,197.7c4.7-2.9,7.4-3.7,7.8-4.7
				c-1.1,0.4-8.7,3-9.8,3.3c4,11.2,6,17.7,12.1,34.4C53.7,213.1,48.6,197.7,48.6,197.7z M63.2,172.6c-4.2,3.6-10.7,8.7-14.7,12.1
				c2.9,2.6,5.3,5.5,8.7,8.2c-3.3-4.2-6.7-8.3-6.7-8.3S59.8,176.2,63.2,172.6z M9.6,192.1c9-6.5,39.2-10.6,55.2-21.6
				c-13.7,6-51.2,14.9-52.5,15.9c-1.5,1.1-5.7,3.1-5.7,3.1c-4.9,9.1-7.8,10.7-9.1,35c-0.1,3.1,0.1,11.8,0.1,14.1l0.3,0
				C-0.5,222.3,5.3,195.2,9.6,192.1z"/>
			<path id="SvgjsPath3906" class="st15" d="M132.2,166.4c0-0.3-0.4-0.6-0.7-0.7c-0.3,0-0.4,0.5-0.6,0.7c-3.5,6.9,0.4,8.3-6.7,29.2
				c-6.8,20.5-7.6,34.9-7.8,42.7l85.9,0.4c0-2.3,0.5-11.1,0.4-14.1c-1.4-24.3-4.3-26.1-9.2-35.2c0,0-4.4-2.2-5.9-3.2
				c-4.9-3.7-0.6,0-22-6c-17.6-5.1-18.5-6.6-24.9-8.4c-1.3-0.4-4.1-0.8-6.9-2.9C133.5,168.7,132.3,166.9,132.2,166.4z M117,237.3
				c3.7-23.6,6.1-29.7,11.3-47.3c3.5-11.1,1.6-17.4,3.3-22.5c0.1-0.3,0.5-0.3,0.6,0c2.4,6.2,9.2,7.7,18.8,17
				c-5.8,5.8-7.3,7.4-8.1,8.4c0.9,0.4,5.6,2.2,9.9,3.9c-0.2,0.8-13.4,38-13.6,38.5c10-21.6,11.3-28.2,14.2-39
				c-0.8-0.6-7.9-3.2-9.1-3.6c4.3-4.4,5.5-5.4,7.5-8c1.6,0-15.9-13.3-16.7-14.2c0.5,0.4,2.8,1.4,3,1.5c14.7,5.2,3.1,2.8,35.2,12
				c3.1,0.8,7.4,1.6,10.5,1.9c0.2,0,5.4,2.7,8.4,4c-7.2,7.5-11.8,17.1-12.8,29.5c3.2-12.7,5-19.3,13.1-28.8
				c7.6,15.4,6.8,13.2,9.2,47.7C181.2,237.4,149.6,237.2,117,237.3z M66.3,168.9c-2.9,2-5.7,2.5-7,2.9c-6.4,1.8-7.3,3.2-24.9,8.4
				c-21.4,6-17.1,2.3-22,6c-1.5,1.1-5.8,3.2-5.8,3.2c-4.9,9.1-7.9,10.9-9.2,35.2c-0.1,3.1,0.4,11.8,0.4,14.1l85.9-0.4
				c-0.2-7.8-1-22.1-7.8-42.7c-7.1-20.8-3.1-22.2-6.7-29.2c-0.1-0.3-0.3-0.7-0.6-0.7c-0.3,0-0.7,0.4-0.7,0.7
				C67.7,166.9,66.5,168.7,66.3,168.9z M-1.8,238.2c2.5-34.5,1.6-32.3,9.2-47.7c8.2,9.5,9.9,16.2,13.1,28.8
				c-1-12.4-5.6-22-12.8-29.5c3-1.2,8.1-3.9,8.4-4c3.2-0.3,7.5-1.1,10.5-1.9c32.1-9.2,20.5-6.8,35.2-12c0.3-0.1,2.5-1.1,3-1.5
				c-0.9,0.9-18.4,14.2-16.7,14.2c2,2.6,3.3,3.5,7.5,8c-1.2,0.4-8.3,3-9.1,3.6c2.9,10.8,4.2,17.4,14.2,39
				c-0.2-0.5-13.3-37.8-13.6-38.5c4.3-1.7,9-3.5,9.9-3.9c-0.8-1-2.2-2.6-8.1-8.4c9.6-9.4,16.4-10.8,18.8-17c0.1-0.3,0.5-0.3,0.6,0
				c1.7,5.1-0.3,11.4,3.3,22.5c5.2,17.5,7.6,23.7,11.3,47.3C50.4,237.2,18.8,237.4-1.8,238.2z"/>
		</g>
		<g id="svga-group-head">
			<g id="svga-group-ears-left">
				<path id="SvgjsPath3848" class="st16" d="M47,83.2c-1.4-2.5-5.6-8.5-10-7c-2.7,0.9-3.3,4-3.7,6.7c-0.6,3.6,0.5,10.7,1.4,13.3
					c0.9,2.5,3.5,7.2,5.3,9c2.1,2.2,4.8,9.3,5.2,10.1c0.7,1.2,1.5,2.9,4.1,2.7c2.9-0.2,4.6-1.8,5.9-2.1
					C58.3,115.2,50.6,89.6,47,83.2z"/>
				<path id="SvgjsPath3849" class="st17" d="M44.2,98.1c-0.1-0.6,0-1.6,0.1-2.5c0.1-0.9,0.2-1.7,0.2-2.3c-0.3-2.2-1.8-6.2-2.8-8.5
					c-1.1-2.6-3-5.8-5.3-6.6c-1-0.3-1.6,0.1-1.9,0.5c-0.3,0.3-0.3,0.7-0.2,0.7c0.1,0,0.3-0.3,0.6-0.5c0.2-0.2,0.6-0.4,1.1-0.4
					c-0.2,1.1-1.2,6.9-0.7,10.8c0.3,3.1,1.6,5.4,1.8,5.8c0,0.4,0.1,0.7,0.1,1.1c0.9,4.5,5,9.7,6.4,11.4c0.3,0.3,0.5,0.5,0.6,0.4
					c0.1-0.1-0.1-0.4-0.4-0.7c-1.4-1.7-5.4-6.8-6.3-11.2c-1-4.7,2.3-11.6,3-13c0.4,0.7,0.7,1.3,0.9,1.9c0.2,0.4,0.4,0.9,0.6,1.5
					c-0.4,0.8-3.4,6.3-2.3,10.8c0.4,1.6,2.2,3.8,3.4,4.3c0.7,0.3,0.9,0.8,1.2,1.3c0.3,0.6,0.7,1.4,1.8,1.9c0.2,0.1,0.4,0.2,0.6,0.2
					c0.3,0,0.6-0.1,0.7-0.3c0,0.3,0,0.6,0,1c0,0.4,0,0.8,0.1,0.8c0.1,0,0.2-0.3,0.2-0.8c0-0.5,0-1.2-0.1-1.5c-0.2-0.9-1-2-1.8-3
					C45.2,100.1,44.4,99,44.2,98.1z M37,94.1c-2.2-7.1,0.7-13.3,1.1-14.3c0.8,0.8,1.6,1.9,2.2,3C39.9,83.6,37,89.3,37,94.1z
					 M46.3,104.5c-1-0.5-1.3-1.1-1.7-1.7c-0.3-0.6-0.6-1.1-1.4-1.5c-0.2-0.1-0.4-0.2-0.5-0.3c-2.5-6.3,0.3-9,1-9.6
					c0.2,0.8,0.4,1.5,0.4,2c0.1,0.5-0.1,1.3-0.2,2.1c-0.1,1-0.3,2-0.1,2.7c0.2,1,1.1,2.1,1.9,3.2c0.7,1,1.5,2,1.7,2.8
					C47.4,104.4,47,104.8,46.3,104.5z"/>
			</g>
			<g id="svga-group-ears-right">
				<path id="SvgjsPath3850" class="st16" d="M152.7,83.2c1.4-2.5,5.6-8.5,10-7c2.8,0.9,3.3,4,3.7,6.7c0.6,3.6-0.5,10.7-1.4,13.3
					c-0.9,2.5-3.5,7.2-5.3,9c-2.1,2.2-4.8,9.3-5.2,10.1c-0.7,1.2-1.5,2.9-4.1,2.7c-2.9-0.2-4.6-1.8-5.9-2.1
					C141.5,115.2,149.2,89.6,152.7,83.2z"/>
				<path id="SvgjsPath3851" class="st17" d="M153.7,101.2c-0.8,1.1-1.6,2.1-1.8,3c-0.1,0.3-0.1,1-0.1,1.5c0,0.4,0.1,0.8,0.2,0.8
					s0.1-0.4,0.1-0.8c0-0.3,0-0.7,0-1c0.2,0.2,0.4,0.3,0.7,0.3c0.2,0,0.4,0,0.6-0.2c1.1-0.5,1.5-1.3,1.8-1.9c0.3-0.6,0.5-1,1.2-1.3
					c1.2-0.6,3-2.7,3.4-4.3c1.1-4.4-1.9-10-2.3-10.8c0.2-0.5,0.4-1,0.6-1.5c0.2-0.5,0.6-1.2,0.9-1.9c0.7,1.5,4,8.4,3,13
					c-0.9,4.4-4.9,9.5-6.3,11.2c-0.3,0.3-0.4,0.6-0.4,0.7c0.1,0.1,0.3-0.1,0.6-0.4c1.4-1.7,5.4-6.9,6.4-11.4
					c0.1-0.3,0.1-0.7,0.1-1.1c0.2-0.3,1.5-2.7,1.8-5.8c0.4-4-0.6-9.8-0.7-10.8c0.5,0,0.8,0.2,1.1,0.4c0.3,0.3,0.5,0.6,0.6,0.5
					c0.1,0,0-0.4-0.2-0.7c-0.4-0.4-1-0.8-1.9-0.5c-2.3,0.8-4.1,4-5.3,6.6c-1,2.2-2.5,6.3-2.8,8.5c-0.1,0.6,0,1.4,0.2,2.3
					c0.1,0.9,0.3,1.9,0.1,2.5C155.3,99,154.5,100.1,153.7,101.2z M159.4,82.8c0.6-1.1,1.4-2.2,2.2-3c0.5,1,3.3,7.1,1.1,14.3
					C162.7,89.3,159.9,83.6,159.4,82.8z M152.3,104.3c0.3-0.8,1-1.8,1.7-2.8c0.8-1.1,1.7-2.3,1.9-3.2c0.1-0.7,0-1.7-0.1-2.7
					c-0.1-0.8-0.2-1.6-0.2-2.1c0.1-0.6,0.2-1.3,0.4-2c0.7,0.6,3.4,3.3,1,9.6c-0.2,0.1-0.4,0.3-0.5,0.3c-0.8,0.4-1.1,0.9-1.4,1.5
					c-0.3,0.6-0.7,1.3-1.7,1.7C152.7,104.8,152.4,104.4,152.3,104.3z"/>
			</g>
			<g id="svga-group-faceshape-wrap">
				<g id="svga-group-faceshape-single">
					<path id="SvgjsPath3859" class="st1" d="M100,0.9C66.4,0.8,39.2,28.3,39.1,62.4c0,5.4,0.7,10.6,2,15.6h0
						c0,0.1,8.8,35.7,15.4,54.1c5.6,15.7,23,29.8,43.5,29.8c20.5,0,38-14.1,43.5-29.8c6.5-18.3,15.4-54,15.4-54.1h0
						c1.3-5,2-10.2,2-15.6C160.8,28.3,133.6,0.8,100,0.9z"/>
					<path id="SvgjsPath3860" class="st18" d="M146.8,23c7.4,10.3,10.9,23.2,10.9,37.1c0,6.5-1.9,15.6-1.9,15.6
						c0,0.1-8.5,35.7-14.8,54.1c-5.4,15.7-21.2,29.8-41,29.8c-19.8,0-35.6-14.1-41-29.8c-6.3-18.3-14.8-54-14.8-54.1
						c0,0-1.9-10.2-1.9-15.6c0-14,3.4-26.8,10.9-37.1c-8.8,10.7-14.1,24.4-14.1,39.4c0,5.4,0.7,10.6,2,15.6h0
						c0,0.1,8.8,35.7,15.4,54.1c5.6,15.7,23,29.8,43.5,29.8c20.5,0,38-14.1,43.5-29.8c6.5-18.3,15.4-54,15.4-54.1h0
						c1.3-5,2-10.2,2-15.6C160.8,47.4,155.6,33.7,146.8,23z"/>
					<path id="SvgjsPath3861" class="st4" d="M100,0.9C66.4,0.8,39.2,28.3,39.1,62.4c0,5.4,0.7,10.6,2,15.6h0
						c0,0.1,8.8,35.7,15.4,54.1c5.6,15.7,23,29.8,43.5,29.8c20.5,0,38-14.1,43.5-29.8c6.5-18.3,15.4-54,15.4-54.1h0
						c1.3-5,2-10.2,2-15.6C160.8,28.3,133.6,0.8,100,0.9z"/>
				</g>
			</g>
			<g id="svga-group-mouth-single">
				<path id="SvgjsPath3118" class="st17" d="M100.3,141.9c-1.5,0-3-0.2-3.9-0.5c-0.3-0.1-0.4-0.4-0.3-0.6c0.1-0.3,0.4-0.4,0.6-0.3
					c1.7,0.7,5.9,0.7,7.7-0.2c0.3-0.1,0.5,0,0.7,0.2c0.1,0.2,0,0.5-0.2,0.7C103.8,141.7,102,141.9,100.3,141.9z M115,133.4
					c0.4-0.2,0.6-0.6,0.4-1s-0.6-0.6-1-0.4c-11.7,5-28.7,0.3-28.9,0.3c-0.4-0.1-0.9,0.1-1,0.5c-0.1,0.4,0.1,0.9,0.5,1
					c0.5,0.1,7.7,2.1,16,2.1C105.7,135.9,110.7,135.3,115,133.4z"/>
			</g>
			<g id="svga-group-eyes-left">
				<g id="svga-group-eyesback-left">
					
						<radialGradient id="SvgjsPath3643_1_" cx="41.8945" cy="193.7951" r="15.117" gradientTransform="matrix(-2.9835 0.3126 -0.3126 -2.9835 258.8163 649.5575)" gradientUnits="userSpaceOnUse">
						<stop  offset="0" style="stop-color:#FFFFFF"/>
						<stop  offset="0.315" style="stop-color:#FCFDFD"/>
						<stop  offset="0.504" style="stop-color:#F4F7F8"/>
						<stop  offset="0.66" style="stop-color:#E5ECEF"/>
						<stop  offset="0.76" style="stop-color:#D8E2E7"/>
					</radialGradient>
					<path id="SvgjsPath3643" class="st19" d="M61.8,82.5c-0.5-2.3,5.2-4,12.7-3.1c7.5,0.9,12.7,5.5,12.1,7.8
						c-0.4,1.3-10.6,3.2-14.3,2.8C68.6,89.8,63,88,61.8,82.5z"/>
				</g>
				<g id="svga-group-eyesiriswrapper-left" transform="translate(0.25 0.25)">
					<g id="svga-group-eyesiriscontrol-left">
						<g id="svga-group-eyesiris-left">
							<path id="SvgjsPath3779" class="st20" d="M80,84c0,3.3-2.7,6-6,6s-6-2.7-6-6l0,0c0-3.3,2.7-6,6-6C77.3,78,80,80.7,80,84
								L80,84z"/>
							
								<radialGradient id="SvgjsPath3780_1_" cx="-212.34" cy="301.3106" r="59.751" gradientTransform="matrix(0.288 -7.440000e-02 -7.350000e-02 -0.2883 157.2249 155.0897)" gradientUnits="userSpaceOnUse">
								<stop  offset="0" style="stop-color:#FFFFFF"/>
								<stop  offset="1" style="stop-color:#FFFFFF;stop-opacity:0"/>
							</radialGradient>
							<path id="SvgjsPath3780" class="st21" d="M73.3,78.1C73.3,78.1,73.3,78.1,73.3,78.1c0,0.1,0,0.3,0,0.4
								C73.3,78.3,73.3,78.2,73.3,78.1z M73.3,78.5c0.1,2,0.2,3.7,0.5,4.4C74,82.1,73.7,80.4,73.3,78.5z M73.9,82.8
								c0,0.2-0.1,0.3-0.2,0.3s-0.2,0-0.4-0.1c0,0.2,0,0.3,0,0.4c-0.1,0.1-0.2,0.1-0.4,0.1c0.1,0.1,0.2,0.2,0.1,0.4
								c0,0.1-0.1,0.2-0.3,0.2c0.2,0.1,0.3,0.1,0.3,0.2c0,0.1,0,0.2-0.1,0.4c0.2,0,0.3,0,0.4,0.1c0.1,0.1,0.1,0.2,0,0.4
								c0.1-0.1,0.3-0.1,0.4-0.1c0.1,0,0.2,0.2,0.2,0.3c0.1-0.2,0.2-0.2,0.3-0.3c0.1,0,0.2,0.1,0.3,0.2c0-0.2,0-0.3,0.1-0.4
								c0.1-0.1,0.2,0,0.4,0c-0.1-0.2-0.1-0.3-0.1-0.4c0.1-0.1,0.2-0.1,0.3-0.2c-0.1-0.1-0.2-0.2-0.2-0.3c0-0.1,0.1-0.2,0.2-0.3
								c-0.2,0-0.3-0.1-0.3-0.2c0-0.1,0-0.2,0.1-0.4c-0.2,0.1-0.3,0.1-0.4,0c-0.1-0.1-0.1-0.2-0.1-0.4c-0.1,0.1-0.2,0.2-0.3,0.2
								C74,83.1,73.9,83,73.9,82.8z M74.5,82.9c0.5-0.5,1-2.2,1.6-4.1C75.2,80.6,74.5,82.2,74.5,82.9z M76,78.8
								c0.1-0.1,0.1-0.2,0.2-0.4c0,0,0,0-0.1,0C76.1,78.6,76.1,78.7,76,78.8z M75,83.3c0.7-0.3,1.9-1.5,3.3-2.9
								C76.7,81.5,75.3,82.6,75,83.3z M78.3,80.4c0.1-0.1,0.2-0.2,0.3-0.2c0,0,0,0,0,0C78.4,80.2,78.4,80.3,78.3,80.4z M75.3,83.8
								c0.7,0.1,2.4-0.4,4.3-1C77.6,83.1,75.8,83.4,75.3,83.8z M79.5,82.8c0.1,0,0.2,0,0.3-0.1c0,0,0,0,0-0.1
								C79.7,82.7,79.6,82.7,79.5,82.8z M75.3,84.4c0.6,0.4,2.3,0.7,4.3,1.1C77.7,84.9,76,84.3,75.3,84.4z M79.5,85.5
								c0.1,0,0.2,0.1,0.3,0.1c0,0,0,0,0-0.1C79.7,85.5,79.6,85.5,79.5,85.5z M75,85c0.3,0.6,1.7,1.7,3.3,2.9
								C76.9,86.5,75.6,85.2,75,85z M78.2,87.9c0.1,0.1,0.1,0.1,0.2,0.2c0,0,0,0,0,0C78.4,88,78.3,87.9,78.2,87.9z M74.5,85.3
								c0,0.7,0.7,2.3,1.5,4.1C75.5,87.5,74.9,85.9,74.5,85.3z M76,89.4c0,0.1,0,0.2,0.1,0.2c0,0,0,0,0,0C76.1,89.6,76,89.5,76,89.4
								z M73.9,85.4c-0.3,0.6-0.5,2.4-0.5,4.4C73.7,87.8,74,86.1,73.9,85.4z M73.3,89.8c0,0.1,0,0.2,0,0.2c0,0,0,0,0,0
								C73.3,89.9,73.3,89.8,73.3,89.8z M73.3,85.2c-0.6,0.4-1.5,1.9-2.5,3.6C72,87.3,73.1,85.9,73.3,85.2z M70.8,88.8
								c-0.1,0.1-0.1,0.1-0.2,0.2c0,0,0,0,0,0C70.7,88.9,70.7,88.9,70.8,88.8z M72.9,84.7c-0.7,0.1-2.2,1-3.9,2
								C70.8,86,72.4,85.2,72.9,84.7z M69,86.7c-0.1,0-0.2,0.1-0.3,0.1c0,0,0,0,0,0C68.8,86.8,68.9,86.8,69,86.7z M72.7,84.1
								c-0.7-0.3-2.4-0.2-4.4,0C70.3,84.3,72.1,84.4,72.7,84.1z M68.3,84.1c-0.1,0-0.2,0-0.3,0c0,0,0,0,0,0.1
								C68.1,84.1,68.2,84.1,68.3,84.1z M72.9,83.5c-0.5-0.5-2.1-1.3-3.9-2.1C70.7,82.5,72.2,83.4,72.9,83.5z M69,81.5
								c-0.1-0.1-0.2-0.1-0.3-0.2c0,0,0,0,0,0.1C68.8,81.4,68.9,81.4,69,81.5z M73.3,83.1c-0.2-0.7-1.2-2.1-2.5-3.6
								C71.8,81.2,72.7,82.7,73.3,83.1z M70.8,79.4c-0.1-0.1-0.1-0.2-0.2-0.3c0,0,0,0-0.1,0C70.6,79.2,70.7,79.3,70.8,79.4z"/>
							
								<radialGradient id="SvgjsPath3784_1_" cx="-189.4084" cy="298.6572" r="59.7533" gradientTransform="matrix(0.2973 2.656896e-03 3.300000e-03 -0.2973 129.2507 173.3223)" gradientUnits="userSpaceOnUse">
								<stop  offset="0" style="stop-color:#FFFFFF"/>
								<stop  offset="1" style="stop-color:#FFFFFF;stop-opacity:0"/>
							</radialGradient>
							<path id="SvgjsPath3784" class="st22" d="M74.9,78.1C74.9,78.1,74.8,78.1,74.9,78.1c-0.1,0.1-0.1,0.3-0.1,0.4
								C74.8,78.4,74.9,78.2,74.9,78.1z M74.8,78.5c-0.4,1.9-0.8,3.6-0.6,4.3C74.5,82.2,74.7,80.5,74.8,78.5z M74.2,82.8
								c-0.1,0.2-0.2,0.2-0.3,0.3c-0.1,0-0.2-0.1-0.3-0.2c0,0.2,0,0.3-0.1,0.4c-0.1,0.1-0.2,0-0.4,0c0.1,0.2,0.1,0.3,0,0.4
								c-0.1,0.1-0.2,0.1-0.3,0.2c0.1,0.1,0.2,0.2,0.2,0.3c0,0.1-0.1,0.2-0.2,0.3c0.2,0,0.3,0.1,0.3,0.2c0,0.1,0,0.2-0.1,0.4
								c0.2-0.1,0.3-0.1,0.4,0s0.1,0.2,0.1,0.4c0.1-0.1,0.2-0.2,0.3-0.2c0.1,0,0.2,0.1,0.3,0.3c0-0.2,0.1-0.3,0.2-0.3
								c0.1,0,0.2,0,0.4,0.1c0-0.2,0-0.3,0-0.4c0.1-0.1,0.2-0.1,0.4-0.1c-0.1-0.1-0.2-0.3-0.1-0.4c0-0.1,0.1-0.2,0.3-0.2
								C75.1,84.1,75,84,75,83.9c0-0.1,0-0.2,0.2-0.3c-0.2,0-0.3,0-0.4-0.1c-0.1-0.1-0.1-0.2,0-0.4c-0.1,0.1-0.3,0.1-0.4,0.1
								C74.3,83.1,74.2,83,74.2,82.8z M74.7,83.1c0.6-0.4,1.6-1.9,2.6-3.6C76,81,74.9,82.4,74.7,83.1z M77.3,79.5
								c0.1-0.1,0.2-0.2,0.3-0.3c0,0,0,0-0.1,0C77.4,79.3,77.4,79.4,77.3,79.5z M75.1,83.5c0.7-0.1,2.2-0.9,3.9-2
								C77.2,82.3,75.6,83,75.1,83.5z M79.1,81.6c0.1,0,0.2-0.1,0.4-0.1c0,0,0,0,0-0.1C79.3,81.5,79.2,81.5,79.1,81.6z M75.3,84.1
								c0.7,0.3,2.4,0.2,4.4,0.1C77.7,84,75.9,83.9,75.3,84.1z M79.7,84.2c0.1,0,0.2,0,0.3,0c0,0,0,0,0-0.1
								C79.9,84.2,79.8,84.2,79.7,84.2z M75.1,84.7c0.5,0.6,2,1.3,3.8,2.1C77.3,85.8,75.8,84.8,75.1,84.7z M78.9,86.9
								c0.1,0.1,0.2,0.1,0.2,0.2c0,0,0,0,0,0C79.1,86.9,79,86.9,78.9,86.9z M74.7,85.2c0.2,0.7,1.2,2.1,2.4,3.7
								C76.2,87.1,75.3,85.6,74.7,85.2z M77.1,88.8c0,0.1,0.1,0.2,0.1,0.2c0,0,0,0,0,0C77.2,89,77.1,88.9,77.1,88.8z M74.1,85.4
								c-0.2,0.7,0.1,2.4,0.4,4.4C74.5,87.8,74.4,86,74.1,85.4z M74.5,89.8c0,0.1,0,0.2,0,0.2c0,0,0,0,0,0
								C74.6,89.9,74.5,89.8,74.5,89.8z M73.5,85.3c-0.5,0.5-1.1,2.2-1.7,4.1C72.7,87.6,73.5,86,73.5,85.3z M71.8,89.4
								c0,0.1-0.1,0.1-0.1,0.2c0,0,0,0,0,0C71.8,89.5,71.8,89.4,71.8,89.4z M73,84.9c-0.7,0.2-2,1.4-3.4,2.8
								C71.2,86.6,72.7,85.6,73,84.9z M69.6,87.8c-0.1,0-0.1,0.1-0.2,0.1c0,0,0,0,0,0C69.5,87.9,69.6,87.8,69.6,87.8z M72.7,84.4
								c-0.7-0.1-2.4,0.4-4.3,1C70.4,85.1,72.1,84.8,72.7,84.4z M68.4,85.3c-0.1,0-0.2,0-0.3,0c0,0,0,0,0,0
								C68.3,85.4,68.3,85.4,68.4,85.3z M72.7,83.8c-0.6-0.4-2.3-0.8-4.2-1.1C70.4,83.3,72,83.8,72.7,83.8z M68.5,82.6
								c-0.1,0-0.2-0.1-0.3-0.1c0,0,0,0,0,0.1C68.3,82.6,68.4,82.6,68.5,82.6z M73,83.2c-0.3-0.6-1.7-1.8-3.2-3
								C71.1,81.7,72.4,83,73,83.2z M69.8,80.2c-0.1-0.1-0.2-0.2-0.3-0.3c0,0,0,0,0,0C69.6,80.1,69.7,80.2,69.8,80.2z M73.6,82.9
								c0-0.7-0.7-2.3-1.5-4.1C72.6,80.7,73.1,82.3,73.6,82.9z M72.1,78.8c0-0.1-0.1-0.3-0.1-0.4c0,0,0,0-0.1,0
								C72,78.5,72,78.6,72.1,78.8z"/>
							<path id="SvgjsPath3788" class="st20" d="M76.4,84c0,1.3-1.1,2.4-2.4,2.4c-1.3,0-2.4-1.1-2.4-2.4c0-1.3,1.1-2.4,2.4-2.4
								C75.3,81.6,76.4,82.7,76.4,84z"/>
							<path id="SvgjsPath3789" class="st23" d="M76.4,84c0,1.3-1.1,2.4-2.4,2.4c-1.3,0-2.4-1.1-2.4-2.4c0-1.3,1.1-2.4,2.4-2.4
								C75.3,81.6,76.4,82.7,76.4,84z"/>
							
								<linearGradient id="SvgjsPath3790_1_" gradientUnits="userSpaceOnUse" x1="39.5291" y1="192.1049" x2="40.4651" y2="193.2209" gradientTransform="matrix(3 0 0 -3 -47.9167 664.5833)">
								<stop  offset="0" style="stop-color:#FFFFFF"/>
								<stop  offset="1" style="stop-color:#FFFFFF;stop-opacity:0"/>
							</linearGradient>
							<path id="SvgjsPath3790" class="st24" d="M70.7,86.7c0.4-0.3,1.1-0.2,1.4,0.3c0.3,0.4,0.2,1.1-0.3,1.4
								c-0.4,0.3-1.1,0.2-1.4-0.3C70.1,87.7,70.3,87,70.7,86.7L70.7,86.7z"/>
							
								<linearGradient id="SvgjsPath3794_1_" gradientUnits="userSpaceOnUse" x1="41.0429" y1="194.0958" x2="40.2939" y2="193.2028" gradientTransform="matrix(3 0 0 -3 -47.9167 664.5833)">
								<stop  offset="0" style="stop-color:#FFFFFF"/>
								<stop  offset="1" style="stop-color:#FFFFFF;stop-opacity:0"/>
							</linearGradient>
							<path id="SvgjsPath3794" class="st25" d="M75.9,83.7c-0.3,0.4-1,0.3-1.6-0.1c-0.6-0.4-0.9-1.1-0.7-1.5v0
								c0.2-0.4,1-0.3,1.6,0.1C75.8,82.6,76.1,83.3,75.9,83.7L75.9,83.7z"/>
							
								<linearGradient id="SvgjsPath3798_1_" gradientUnits="userSpaceOnUse" x1="41.8508" y1="194.9205" x2="40.1248" y2="192.8635" gradientTransform="matrix(3 0 0 -3 -47.9167 664.5833)">
								<stop  offset="0" style="stop-color:#FFFFFF"/>
								<stop  offset="1" style="stop-color:#FFFFFF;stop-opacity:0"/>
							</linearGradient>
							<path id="SvgjsPath3798" class="st26" d="M78.7,82.7c-0.6,0.9-2,0.9-3.3,0.1c-1.2-0.8-1.8-2.2-1.2-3c0.6-0.9,2-0.9,3.3-0.1
								C78.7,80.4,79.3,81.8,78.7,82.7L78.7,82.7z"/>
						</g>
					</g>
				</g>
				<g id="svga-group-eyesfront-left">
					<path id="SvgjsPath3665" class="st1" d="M53.3,83c0.8,10.9,11.6,23.6,20.5,22.2c10.5,0.1,20.9-7.9,20.9-22.3
						s-5.1-26.5-21.1-26.5C62,56.4,53.3,68.6,53.3,83z M61.8,82.5c-0.5-2.3,5.2-4,12.7-3.1c7.5,0.9,12.7,5.5,12.1,7.8
						c-0.4,1.3-10.6,3.2-14.3,2.8C68.6,89.8,63,88,61.8,82.5z"/>
					
						<radialGradient id="SvgjsPath3666_1_" cx="39.7698" cy="218.0123" r="16.003" fx="51.0228" fy="218.0433" gradientTransform="matrix(2.9994 6.240000e-02 -4.980000e-02 2.3994 -30.417 -443.0837)" gradientUnits="userSpaceOnUse">
						<stop  offset="0" style="stop-color:#F0B399"/>
						<stop  offset="0.7" style="stop-color:#F0B399;stop-opacity:0.3"/>
						<stop  offset="1" style="stop-color:#FFD0BC;stop-opacity:0"/>
					</radialGradient>
					<path id="SvgjsPath3666" class="st27" d="M72.3,90.2c3.6,0.4,13.9-1.6,14.3-2.8c0.7-2.3-4.5-6.9-12.1-7.8
						c-6.5-0.8-11.6,0.3-12.6,2.1c0.9-6.4,7.7-11.4,16-11.4c8.9,0,16.1,5.7,16.2,12.8c0,7.1-7.2,12.9-16.1,12.9
						c-8.9,0-16.1-5.7-16.2-12.8c0-0.1,0-0.2,0-0.3C63.1,88.1,68.7,89.8,72.3,90.2z"/>
					
						<radialGradient id="SvgjsPath3671_1_" cx="21.8478" cy="186.7892" r="29.524" gradientTransform="matrix(3.1008 0 0 -3.1008 1.8217 690.0652)" gradientUnits="userSpaceOnUse">
						<stop  offset="0.95" style="stop-color:#000000;stop-opacity:0"/>
						<stop  offset="1" style="stop-color:#000000;stop-opacity:0.2"/>
					</radialGradient>
					<path id="SvgjsPath3671" class="st28" d="M61.8,82.5c-0.5-2.3,5.2-4,12.7-3.1c7.5,0.9,12.7,5.5,12.1,7.8
						c-0.4,1.3-10.6,3.2-14.3,2.8C68.6,89.8,63,88,61.8,82.5z"/>
					<path id="SvgjsPath3675" class="st17" d="M62.1,77.4c4.2-2,9.4-2.2,13.8-1c2.4,0.6,5,1.3,7.1,2.6c1.9,1.1,3.5,2.5,5,4.2
						c-1.3-1.7-2.8-3.1-4.6-4.3c-2.3-1.4-4.8-2.3-7.4-2.9C71.5,74.9,66.3,75.2,62.1,77.4z"/>
					<path id="SvgjsPath3676" class="st29" d="M62.8,78c0.9-0.4,4.1-1,5.5-1.1c1.7-0.1,5.1,0.1,6.7,0.4c3.4,0.6,9.3,2.5,11.7,7.2
						c0.7,1.4,0.1,2.5-0.1,2.7c0.3-2.4-4.8-6.7-12.1-7.6c-7.5-0.9-13.2,0.7-12.7,3c1.2,5.3,6.8,7,10.5,7.4
						c4.1,0.4,11.7-1.5,12.7-1.8c-2,1-7.5,2.1-9.8,2.3c-0.7,0.1-2.2,0.1-3,0.1c-5.9-0.2-10.2-3.2-11.7-7.3
						C59.5,80.7,60.6,78.9,62.8,78z"/>
				</g>
			</g>
			<g id="svga-group-eyes-right">
				<g id="svga-group-eyesback-right">
					
						<radialGradient id="SvgjsPath3650_1_" cx="42.8669" cy="193.8972" r="15.116" gradientTransform="matrix(2.9835 0.3126 0.3126 -2.9835 -62.1478 649.5575)" gradientUnits="userSpaceOnUse">
						<stop  offset="0" style="stop-color:#FFFFFF"/>
						<stop  offset="0.316" style="stop-color:#FCFDFD"/>
						<stop  offset="0.505" style="stop-color:#F4F7F8"/>
						<stop  offset="0.661" style="stop-color:#E5ECEF"/>
						<stop  offset="0.76" style="stop-color:#D8E2E7"/>
					</radialGradient>
					<path id="SvgjsPath3650" class="st30" d="M137.8,82.5c0.5-2.3-5.2-4-12.7-3.1c-7.5,0.9-12.7,5.5-12.1,7.8
						c0.4,1.3,10.6,3.2,14.3,2.8C131,89.8,136.6,88,137.8,82.5z"/>
				</g>
				<g id="svga-group-eyesiriswrapper-right" transform="translate(-0.25 0.25)">
					<g id="svga-group-eyesiriscontrol-right">
						<g id="svga-group-eyesiris-right">
							<path id="SvgjsPath3802" class="st20" d="M132,84c0,3.3-2.7,6-6,6c-3.3,0-6-2.7-6-6l0,0c0-3.3,2.7-6,6-6
								C129.3,78,132,80.7,132,84L132,84z"/>
							
								<radialGradient id="SvgjsPath3803_1_" cx="-211.8383" cy="301.3106" r="59.752" gradientTransform="matrix(0.288 -7.440000e-02 -7.350000e-02 -0.2883 209.0798 155.127)" gradientUnits="userSpaceOnUse">
								<stop  offset="0" style="stop-color:#FFFFFF"/>
								<stop  offset="1" style="stop-color:#FFFFFF;stop-opacity:0"/>
							</radialGradient>
							<path id="SvgjsPath3803" class="st31" d="M125.3,78.1C125.3,78.1,125.3,78.1,125.3,78.1c0,0.1,0,0.3,0,0.4
								C125.3,78.3,125.3,78.2,125.3,78.1z M125.3,78.5c0.1,2,0.2,3.7,0.5,4.4C126,82.1,125.7,80.4,125.3,78.5z M125.9,82.8
								c0,0.2-0.1,0.3-0.2,0.3c-0.1,0-0.2,0-0.4-0.1c0,0.2,0,0.3,0,0.4c-0.1,0.1-0.2,0.1-0.4,0.1c0.1,0.1,0.2,0.2,0.1,0.4
								c0,0.1-0.1,0.2-0.3,0.2c0.2,0.1,0.3,0.1,0.3,0.2c0,0.1,0,0.2-0.1,0.4c0.2,0,0.3,0,0.4,0.1c0.1,0.1,0.1,0.2,0,0.4
								c0.1-0.1,0.3-0.1,0.4-0.1c0.1,0,0.2,0.2,0.2,0.3c0.1-0.2,0.2-0.2,0.3-0.3c0.1,0,0.2,0.1,0.3,0.2c0-0.2,0-0.3,0.1-0.4
								c0.1-0.1,0.2,0,0.4,0c-0.1-0.2-0.1-0.3-0.1-0.4c0.1-0.1,0.2-0.1,0.3-0.2c-0.1-0.1-0.2-0.2-0.2-0.3c0-0.1,0.1-0.2,0.2-0.3
								c-0.2,0-0.3-0.1-0.3-0.2c-0.1-0.1,0-0.2,0.1-0.4c-0.2,0.1-0.3,0.1-0.4,0s-0.1-0.2-0.1-0.4c-0.1,0.1-0.2,0.2-0.3,0.2
								C126,83.1,125.9,83,125.9,82.8z M126.5,82.9c0.5-0.5,1-2.2,1.6-4.1C127.2,80.6,126.5,82.2,126.5,82.9z M128,78.8
								c0.1-0.1,0.1-0.2,0.2-0.4c0,0,0,0-0.1,0C128.1,78.6,128.1,78.7,128,78.8z M127,83.3c0.7-0.3,1.9-1.5,3.3-2.9
								C128.7,81.5,127.3,82.6,127,83.3z M130.3,80.4c0.1-0.1,0.2-0.2,0.3-0.2c0,0,0,0,0,0C130.4,80.2,130.4,80.3,130.3,80.4z
								 M127.3,83.8c0.7,0.1,2.4-0.4,4.3-1C129.6,83.1,127.8,83.4,127.3,83.8z M131.5,82.8c0.1,0,0.2,0,0.3-0.1c0,0,0,0,0-0.1
								C131.7,82.7,131.6,82.7,131.5,82.8z M127.3,84.4c0.6,0.4,2.3,0.7,4.3,1.1C129.6,84.9,128,84.3,127.3,84.4z M131.5,85.5
								c0.1,0,0.2,0.1,0.3,0.1c0,0,0,0,0-0.1C131.7,85.5,131.6,85.5,131.5,85.5z M127,85c0.3,0.6,1.7,1.7,3.3,2.9
								C128.9,86.5,127.6,85.2,127,85z M130.2,87.9c0.1,0.1,0.1,0.1,0.2,0.2c0,0,0,0,0,0C130.4,88,130.3,87.9,130.2,87.9z
								 M126.5,85.3c0,0.7,0.7,2.3,1.5,4.1C127.5,87.5,126.9,85.9,126.5,85.3z M128,89.4c0,0.1,0,0.2,0.1,0.2c0,0,0,0,0,0
								C128.1,89.6,128,89.5,128,89.4z M125.9,85.4c-0.3,0.6-0.5,2.4-0.5,4.4C125.7,87.8,126,86.1,125.9,85.4z M125.3,89.8
								c0,0.1,0,0.2,0,0.2c0,0,0,0,0,0C125.3,89.9,125.3,89.8,125.3,89.8z M125.3,85.2c-0.6,0.4-1.5,1.9-2.5,3.6
								C124,87.3,125.1,85.9,125.3,85.2z M122.8,88.8c-0.1,0.1-0.1,0.1-0.2,0.2c0,0,0,0,0,0C122.7,88.9,122.7,88.9,122.8,88.8z
								 M124.9,84.7c-0.7,0.1-2.2,1-3.9,2C122.8,86,124.4,85.2,124.9,84.7z M121,86.7c-0.1,0-0.2,0.1-0.3,0.1c0,0,0,0,0,0
								C120.8,86.8,120.9,86.8,121,86.7z M124.7,84.1c-0.7-0.3-2.4-0.2-4.4,0C122.3,84.3,124.1,84.4,124.7,84.1z M120.3,84.1
								c-0.1,0-0.2,0-0.3,0c0,0,0,0,0,0.1C120.1,84.1,120.2,84.1,120.3,84.1z M124.9,83.5c-0.5-0.5-2.1-1.3-3.9-2.1
								C122.7,82.5,124.2,83.4,124.9,83.5z M121,81.5c-0.1-0.1-0.2-0.1-0.3-0.2c0,0,0,0,0,0.1C120.8,81.4,120.9,81.4,121,81.5z
								 M125.3,83.1c-0.2-0.7-1.2-2.1-2.5-3.6C123.8,81.2,124.7,82.7,125.3,83.1z M122.8,79.4c-0.1-0.1-0.1-0.2-0.2-0.3
								c0,0,0,0-0.1,0C122.6,79.2,122.7,79.3,122.8,79.4z"/>
							
								<radialGradient id="SvgjsPath3807_1_" cx="-188.9067" cy="298.6575" r="59.7562" gradientTransform="matrix(0.2973 2.656896e-03 3.300000e-03 -0.2973 181.1012 173.3211)" gradientUnits="userSpaceOnUse">
								<stop  offset="0" style="stop-color:#FFFFFF"/>
								<stop  offset="1" style="stop-color:#FFFFFF;stop-opacity:0"/>
							</radialGradient>
							<path id="SvgjsPath3807" class="st32" d="M126.9,78.1C126.9,78.1,126.8,78.1,126.9,78.1c-0.1,0.1-0.1,0.3-0.1,0.4
								C126.8,78.4,126.9,78.2,126.9,78.1z M126.8,78.5c-0.4,1.9-0.8,3.6-0.6,4.3C126.5,82.2,126.7,80.5,126.8,78.5z M126.2,82.8
								c-0.1,0.2-0.2,0.2-0.3,0.3c-0.1,0-0.2-0.1-0.3-0.2c0,0.2,0,0.3-0.1,0.4c-0.1,0.1-0.2,0-0.4,0c0.1,0.2,0.1,0.3,0,0.4
								c-0.1,0.1-0.2,0.1-0.3,0.2c0.1,0.1,0.2,0.2,0.2,0.3c0,0.1-0.1,0.2-0.2,0.3c0.2,0,0.3,0.1,0.3,0.2c0,0.1,0,0.2-0.1,0.4
								c0.2-0.1,0.3-0.1,0.4,0s0.1,0.2,0.1,0.4c0.1-0.1,0.2-0.2,0.3-0.2c0.1,0,0.2,0.1,0.3,0.3c0-0.2,0.1-0.3,0.2-0.3
								c0.1,0,0.2,0,0.4,0.1c0-0.2,0-0.3,0-0.4c0.1-0.1,0.2-0.1,0.4-0.1c-0.1-0.1-0.2-0.3-0.1-0.4c0-0.1,0.1-0.2,0.3-0.2
								c-0.2-0.1-0.3-0.1-0.3-0.2c0-0.1,0-0.2,0.2-0.3c-0.2,0-0.3,0-0.4-0.1c-0.1-0.1-0.1-0.2,0-0.4c-0.1,0.1-0.3,0.1-0.4,0.1
								C126.3,83.1,126.2,83,126.2,82.8z M126.7,83.1c0.6-0.4,1.6-1.9,2.6-3.6C128,81,126.9,82.4,126.7,83.1z M129.3,79.5
								c0.1-0.1,0.2-0.2,0.3-0.3c0,0,0,0-0.1,0C129.4,79.3,129.4,79.4,129.3,79.5z M127.1,83.5c0.7-0.1,2.2-0.9,3.9-2
								C129.2,82.3,127.6,83,127.1,83.5z M131.1,81.6c0.1,0,0.2-0.1,0.4-0.1c0,0,0,0,0-0.1C131.3,81.5,131.2,81.5,131.1,81.6z
								 M127.3,84.1c0.7,0.3,2.4,0.2,4.4,0.1C129.7,84,127.9,83.9,127.3,84.1z M131.7,84.2c0.1,0,0.2,0,0.3,0c0,0,0,0,0-0.1
								C131.9,84.2,131.8,84.2,131.7,84.2z M127.1,84.7c0.5,0.6,2,1.3,3.8,2.1C129.3,85.8,127.8,84.8,127.1,84.7z M130.9,86.9
								c0.1,0.1,0.2,0.1,0.2,0.2c0,0,0,0,0,0C131.1,86.9,131,86.9,130.9,86.9z M126.7,85.2c0.2,0.7,1.2,2.1,2.4,3.7
								C128.2,87.1,127.3,85.6,126.7,85.2z M129.1,88.8c0,0.1,0.1,0.2,0.1,0.2c0,0,0,0,0,0C129.2,89,129.1,88.9,129.1,88.8z
								 M126.1,85.4c-0.2,0.7,0.1,2.4,0.4,4.4C126.5,87.8,126.4,86,126.1,85.4z M126.5,89.8c0,0.1,0,0.2,0,0.2c0,0,0,0,0,0
								C126.6,89.9,126.5,89.8,126.5,89.8z M125.5,85.3c-0.5,0.5-1.1,2.2-1.7,4.1C124.7,87.6,125.5,86,125.5,85.3z M123.8,89.4
								c0,0.1-0.1,0.1-0.1,0.2c0,0,0,0,0,0C123.8,89.5,123.8,89.4,123.8,89.4z M125,84.9c-0.7,0.2-2,1.4-3.4,2.8
								C123.2,86.6,124.7,85.6,125,84.9z M121.6,87.8c-0.1,0-0.1,0.1-0.2,0.1c0,0,0,0,0,0C121.5,87.9,121.6,87.8,121.6,87.8z
								 M124.7,84.4c-0.7-0.1-2.4,0.4-4.3,1C122.4,85.1,124.1,84.8,124.7,84.4z M120.4,85.3c-0.1,0-0.2,0-0.3,0c0,0,0,0,0,0
								C120.3,85.4,120.3,85.4,120.4,85.3z M124.7,83.8c-0.6-0.4-2.3-0.8-4.2-1.1C122.4,83.3,124,83.8,124.7,83.8z M120.5,82.6
								c-0.1,0-0.2-0.1-0.3-0.1c0,0,0,0,0,0.1C120.3,82.6,120.4,82.6,120.5,82.6z M125,83.2c-0.3-0.6-1.7-1.8-3.2-3
								C123.1,81.7,124.4,83,125,83.2z M121.8,80.2c-0.1-0.1-0.2-0.2-0.3-0.3c0,0,0,0,0,0C121.6,80.1,121.7,80.2,121.8,80.2z
								 M125.6,82.9c0-0.7-0.7-2.3-1.5-4.1C124.6,80.7,125.1,82.3,125.6,82.9z M124.1,78.8c0-0.1-0.1-0.3-0.1-0.4c0,0,0,0-0.1,0
								C124,78.5,124,78.6,124.1,78.8z"/>
							<path id="SvgjsPath3811" class="st20" d="M128.4,84c0,1.3-1.1,2.4-2.4,2.4c-1.3,0-2.4-1.1-2.4-2.4c0-1.3,1.1-2.4,2.4-2.4
								C127.3,81.6,128.4,82.7,128.4,84z"/>
							<path id="SvgjsPath3812" class="st23" d="M128.4,84c0,1.3-1.1,2.4-2.4,2.4c-1.3,0-2.4-1.1-2.4-2.4c0-1.3,1.1-2.4,2.4-2.4
								C127.3,81.6,128.4,82.7,128.4,84z"/>
							
								<linearGradient id="SvgjsPath3813_1_" gradientUnits="userSpaceOnUse" x1="40.0292" y1="192.1049" x2="40.9652" y2="193.2209" gradientTransform="matrix(3 0 0 -3 2.5833 664.5833)">
								<stop  offset="0" style="stop-color:#FFFFFF"/>
								<stop  offset="1" style="stop-color:#FFFFFF;stop-opacity:0"/>
							</linearGradient>
							<path id="SvgjsPath3813" class="st33" d="M122.7,86.7c0.4-0.3,1.1-0.2,1.4,0.3c0.3,0.4,0.2,1.1-0.3,1.4
								c-0.4,0.3-1.1,0.2-1.4-0.3C122.1,87.7,122.3,87,122.7,86.7L122.7,86.7z"/>
							
								<linearGradient id="SvgjsPath3817_1_" gradientUnits="userSpaceOnUse" x1="41.5429" y1="194.0958" x2="40.7939" y2="193.2028" gradientTransform="matrix(3 0 0 -3 2.5833 664.5833)">
								<stop  offset="0" style="stop-color:#FFFFFF"/>
								<stop  offset="1" style="stop-color:#FFFFFF;stop-opacity:0"/>
							</linearGradient>
							<path id="SvgjsPath3817" class="st34" d="M127.9,83.7c-0.3,0.4-1,0.3-1.6-0.1c-0.6-0.4-0.9-1.1-0.7-1.5l0,0
								c0.2-0.4,1-0.3,1.6,0.1C127.8,82.6,128.1,83.3,127.9,83.7L127.9,83.7z"/>
							
								<linearGradient id="SvgjsPath3821_1_" gradientUnits="userSpaceOnUse" x1="42.3509" y1="194.9204" x2="40.6249" y2="192.8634" gradientTransform="matrix(3 0 0 -3 2.5833 664.5833)">
								<stop  offset="0" style="stop-color:#FFFFFF"/>
								<stop  offset="1" style="stop-color:#FFFFFF;stop-opacity:0"/>
							</linearGradient>
							<path id="SvgjsPath3821" class="st35" d="M130.7,82.7c-0.6,0.9-2,0.9-3.3,0.1c-1.2-0.8-1.8-2.2-1.2-3c0.6-0.9,2-0.9,3.3-0.1
								C130.7,80.4,131.3,81.8,130.7,82.7L130.7,82.7z"/>
						</g>
					</g>
				</g>
				<g id="svga-group-eyesfront-right">
					<path id="SvgjsPath3685" class="st1" d="M126.1,56.4c-16,0-21.1,12.1-21.1,26.5s10.4,22.4,20.9,22.3
						c8.9,1.3,19.7-11.3,20.5-22.2C146.3,68.6,137.6,56.4,126.1,56.4z M127.3,90.2c-3.6,0.4-13.9-1.6-14.3-2.8
						c-0.7-2.3,4.5-6.9,12.1-7.8c7.5-0.9,13.2,0.8,12.7,3.1C136.6,88,131,89.8,127.3,90.2z"/>
					
						<radialGradient id="SvgjsPath3686_1_" cx="38.5259" cy="218.0412" r="16.003" fx="49.7779" fy="218.0722" gradientTransform="matrix(-2.9994 6.240000e-02 4.980000e-02 2.3994 226.2849 -443.0754)" gradientUnits="userSpaceOnUse">
						<stop  offset="0" style="stop-color:#F0B399"/>
						<stop  offset="0.7" style="stop-color:#F0B399;stop-opacity:0.3"/>
						<stop  offset="1" style="stop-color:#FFD0BC;stop-opacity:0"/>
					</radialGradient>
					<path id="SvgjsPath3686" class="st36" d="M127.3,90.2c-3.6,0.4-13.9-1.6-14.3-2.8c-0.7-2.3,4.5-6.9,12.1-7.8
						c6.5-0.8,11.6,0.3,12.6,2.1c-0.9-6.4-7.7-11.4-16-11.4c-8.9,0-16.1,5.7-16.2,12.8c0,7.1,7.2,12.9,16.1,12.9
						c8.9,0,16.1-5.7,16.2-12.8c0-0.1,0-0.2,0-0.3C136.5,88.1,130.9,89.8,127.3,90.2z"/>
					
						<radialGradient id="SvgjsPath3691_1_" cx="20.9012" cy="186.7892" r="29.524" gradientTransform="matrix(-3.1008 0 0 -3.1008 194.8449 690.0652)" gradientUnits="userSpaceOnUse">
						<stop  offset="0.95" style="stop-color:#000000;stop-opacity:0"/>
						<stop  offset="1" style="stop-color:#000000;stop-opacity:0.2"/>
					</radialGradient>
					<path id="SvgjsPath3691" class="st37" d="M137.8,82.5c0.5-2.3-5.2-4-12.7-3.1c-7.5,0.9-12.7,5.5-12.1,7.8
						c0.4,1.3,10.6,3.2,14.3,2.8C131,89.8,136.6,88,137.8,82.5z"/>
					<path id="SvgjsPath3695" class="st17" d="M137.5,77.4c-4.2-2-9.4-2.2-13.8-1c-2.4,0.6-5,1.3-7.1,2.6c-1.9,1.1-3.5,2.5-5,4.2
						c1.3-1.7,2.8-3.1,4.6-4.3c2.3-1.4,4.8-2.3,7.4-2.9C128.1,74.9,133.3,75.2,137.5,77.4z"/>
					<path id="SvgjsPath3696" class="st29" d="M136.8,78c-0.9-0.4-4.1-1-5.5-1.1c-1.7-0.1-5.1,0.1-6.7,0.4
						c-3.4,0.6-9.3,2.5-11.7,7.2c-0.7,1.4-0.1,2.5,0.1,2.7c-0.3-2.4,4.8-6.7,12.1-7.6c7.5-0.9,13.2,0.7,12.7,3
						c-1.2,5.3-6.8,7-10.5,7.4c-4.1,0.4-11.7-1.5-12.7-1.8c2,1,7.5,2.1,9.8,2.3c0.7,0.1,2.2,0.1,3,0.1c5.9-0.2,10.2-3.2,11.7-7.3
						C140.1,80.7,139,78.9,136.8,78z"/>
				</g>
			</g>
			<g id="svga-group-facehighlight-single">
				
					<radialGradient id="SvgjsPath2885_1_" cx="32.2221" cy="183.7781" r="41.0003" gradientTransform="matrix(3 0 0 -3 3.3333 665.3333)" gradientUnits="userSpaceOnUse">
					<stop  offset="0" style="stop-color:#FFE2D6;stop-opacity:0.5"/>
					<stop  offset="0.9" style="stop-color:#FFD0BC;stop-opacity:0"/>
				</radialGradient>
				<path id="SvgjsPath2885" class="st38" d="M141,114c0,22.6-18.3,41-40.9,41c-22.6,0-41-18.3-41.1-40.9C59,91.5,77.3,73,99.9,73
					C122.6,73,141,91.3,141,114z"/>
				
					<radialGradient id="SvgjsPath2889_1_" cx="32.2222" cy="203.7781" r="36.9995" gradientTransform="matrix(3 0 0 -3 3.3333 665.3333)" gradientUnits="userSpaceOnUse">
					<stop  offset="0" style="stop-color:#FFE2D6;stop-opacity:0.5"/>
					<stop  offset="0.9" style="stop-color:#FFD0BC;stop-opacity:0"/>
				</radialGradient>
				<path id="SvgjsPath2889" class="st39" d="M137.5,54c0,20.7-16.8,37.5-37.5,37.5c-20.7,0-37.5-16.8-37.5-37.5S79.3,16.5,100,16.5
					C120.7,16.5,137.5,33.3,137.5,54z"/>
			</g>
			<g id="svga-group-eyebrows-left">
				<path id="SvgjsPath3825" class="st0" d="M54,74.2c10-10,16.8-5.9,30.6-3.3c0.8,0.2,6.3,1.5,5.3,3.5c-0.5,0.9-2,0.8-2.9,0.8
					C73.3,74.9,66.7,65.2,54,74.2z"/>
			</g>
			<g id="svga-group-eyebrows-right">
				<path id="SvgjsPath3826" class="st0" d="M146,74.2c-10-10-16.8-5.9-30.6-3.3c-0.8,0.2-6.3,1.5-5.3,3.5c0.5,0.9,2,0.8,2.9,0.8
					C126.7,74.9,133.3,65.2,146,74.2z"/>
			</g>
			<g id="svga-group-nose-single">
				<path id="SvgjsPath3119" class="st17" d="M105.1,117.9c1.1,0,1.3,0.3,1.3,0.6c0,0.3-0.3,0.9-1.3,0.6c-1.1-0.3-3-0.1-3-0.1
					S104,117.9,105.1,117.9z M95,117.9c-1.1,0-1.3,0.3-1.3,0.6c0,0.3,0.3,0.8,1.3,0.6c1.1-0.2,3-0.1,3-0.1S96.1,117.9,95,117.9z
					 M108.6,114.1c0,0,1.5,1.7,1.2,3.4c-0.3,1.7-3.2,2.4-3.2,2.4s2-1.3,2.3-2.9C108.9,116.4,108.6,114.1,108.6,114.1z M90.6,112.4
					c0,0-1.1,2.3-0.8,3.7c0.6,2.5,3.6,3.6,3.6,3.6s-1.9-1.7-2.6-3.3C90.1,114.8,90.6,112.4,90.6,112.4z"/>
				<path id="SvgjsPath3120" class="st2" d="M105,115.4c1-0.8,1.1-1.2,0.9-1.5c-0.2-0.3-0.8-0.5-1.7,0.5c-0.9,1-3,1.8-3,1.8
					S104,116.1,105,115.4z"/>
			</g>
			<g id="svga-group-beardwrap">
				<g id="svga-group-beard-single">
					<path id="SvgjsPath3887" class="st0" d="M76.2,153.2c9.8,0,11.5-0.1,14.2-1.9c3.1-1.9,5.3-7.5,2.3-14.4l0.3,0.1
						c3.9,0.8,6.2,1.3,13.6-0.2c-2,4.1-2.1,8.4-0.3,11.7c3.2,5.8,8.6,4.3,17.5,4.8c-9.4,9.9-16.9,14.4-24.3,14.4
						C90.6,167.6,81.2,160.3,76.2,153.2z"/>
					<path id="SvgjsPath3888" class="st40" d="M93.1,138.3c-0.2-0.5-0.4-1-0.6-1.4c4.2,0.9,6.4,1.4,14.3-0.1
						c-0.2,0.4-0.4,0.9-0.6,1.3C101.7,140.9,97,141.7,93.1,138.3z M112.8,152.8c-1.7-0.2-3.3-0.9-4.5-2c1.7,3.6,6.7,4.2,11.7,4.2
						c-4,0-3,3-6,0c0.8,1.6-0.7,4.7-1,5c0-0.4-0.4-2.2-1-3c-2,1,0,3-2,4c1-1-1-2-1-3c-1,2-1.5,3-2.5,5c0-2-0.6-2.2-1.6-3.2
						c0,2-0.9,2.2-1.9,4.2c0-1-2-2-1-4c-2,1-2,3-2,5c-1-1-1-2-1-4c-3,0-2,4-3,4c-1-1,0-4-2-6c1,2-3,3-2,5c-2-2,0-4-2-6
						c-0.7,0.7-1.5,2-1.8,3c0,0.3,0,0.6-0.2,1c0-0.3,0.1-0.6,0.2-1c-0.1-1.7-2-3.4-1.2-5c-1,1-2,3-2,4c0-2-2-4-2-4l-1,2
						c0,0,0.7-2.7-0.6-3c-0.1,0-0.2,0-0.4,0c0.2,0,0.3,0,0.4,0c4.8,0.6,9.1-1.8,10.9-5.6c-0.5,0.6-1.2,1.5-1.9,1.9
						c-2.7,1.7-4.4,1.8-14.4,1.8c1.8,2.5,2.5,3.1,3.7,4.5c16.9,16.5,29.4,11.2,44.3-4.4C120.6,153,115.5,153.2,112.8,152.8z"/>
					<path id="SvgjsPath3889" class="st41" d="M112.8,152.8c-6-0.6-10.1-7.7-6-16.1c-7.8,1.6-10.1,1-14.3,0.1
						c1.7,3.7,2.2,7.9,0.3,11.7c0.1,0-1.4,2.1-2.5,2.7c-2.7,1.7-4.4,1.8-14.4,1.8c1.8,2.5,2.5,3.1,3.7,4.5
						c16.9,16.5,29.4,11.2,44.3-4.4C120.6,153,115.5,153.2,112.8,152.8z M105.4,165.4c-10.4,3.2-21-3.3-28.7-11.7
						c5.2,0.2,17.8,2.4,17.9-9.8c-0.1-2.4-0.6-4.3-1.6-6.4c3.4,0.9,6.7,1.4,13.1-0.2c-4.2,8.3-0.1,15.9,6.9,16.5
						c1.9,0.3,7.5-0.1,10-0.2C118.8,157.5,111.1,163.4,105.4,165.4z"/>
				</g>
			</g>
			<g id="svga-group-mustache-single">
				<path id="SvgjsPath3874" class="st0" d="M100,18.1L100,18.1L100,18.1L100,18.1z"/>
			</g>
			<g id="svga-group-hair-front">
				<path id="SvgjsPath3872" class="st0" d="M100,18.1L100,18.1L100,18.1L100,18.1z"/>
			</g>
			<g id="svga-group-glasses-single">
				<path id="SvgjsPath3829" class="st42" d="M143.6,100.1c-2.4,2.2-6.2,3-13.6,3c-9.8,0-16.2-1.1-20.4-9.5c-3.3-6.5-4.6-13.6-3-16
					c2.2-3.3,8.6-5.6,15.7-6.3C134.6,77.2,143.3,89,143.6,100.1z M72,71.2c-7.6,0.2-15.1,2.3-18.3,7.1c-2.2,3.2-1.7,12.6-0.2,16.9
					c2,6,5.1,8,16.4,8c9.8,0,16.2-1.1,20.4-9.5c0.4-0.8,0.8-1.7,1.2-2.5C88.3,82.9,81.2,75.4,72,71.2z"/>
				<path id="SvgjsPath3830" class="st43" d="M146.5,95.2c-0.7,2.1-1.6,3.7-2.9,4.9c-0.3-11.1-9-22.9-21.3-28.7c9.4-0.9,20,1,24,6.9
					C148.4,81.4,147.9,90.8,146.5,95.2z M93.4,77.7c-2.8-4.2-12.2-6.7-21.4-6.5c9.2,4.2,16.3,11.8,19.5,19.9
					C93.9,85.4,94.8,79.8,93.4,77.7z"/>
				<path id="SvgjsPath3831" class="st44" d="M151.8,73.6c-10.2-5.5-36.1-7-45.5,0.2c-0.8,0.5-4.2-0.5-6.3-0.5
					c-1.9,0-5.4,1.1-6.3,0.5c-9.4-7.2-35.3-5.6-45.5-0.2c-1.5,0.8-1.6,4.5-0.3,5.1c0.9,0.4,1.5,1,1.5,2c-0.3,5.6,1.2,12.9,1.9,14.9
					c0.9,2.6,2.4,7.4,9.3,8.6c5.8,1,16.4,1.5,21.9-0.2c10-3,14.2-18,14.4-23.2l0,0c0.4-1.8,5.8-1.8,6.2,0l0,0
					c0.2,5.1,4.4,20.2,14.4,23.2c5.5,1.7,16.1,1.2,21.9,0.2c6.9-1.2,8.4-6,9.3-8.6c0.7-2,2.2-9.3,1.9-14.9c-0.1-1,0.6-1.6,1.5-2
					C153.4,78.1,153.2,74.4,151.8,73.6z M81.4,101.4c-5.1,1.5-14.3,1.6-19.7,0.7c-4.5-0.8-6.4-3.3-7.7-7c-1.5-4.4-1.9-13.5,0.2-16.5
					c6.8-10,33.9-8.1,38.8-0.6C95.2,81.3,90.9,98.5,81.4,101.4z M146,95c-1.3,3.8-3.2,6.2-7.7,7c-5.4,0.9-14.7,0.8-19.7-0.7
					c-9.5-2.8-13.8-20.1-11.6-23.4c4.9-7.5,32-9.4,38.8,0.6C147.9,81.5,147.5,90.6,146,95z"/>
				<path id="SvgjsPath3832" class="st45" d="M118.6,101.3c2.8,0.8,6.9,1.2,10.9,1.3c-12.5,1.2-15.4-3.4-17.1-5.2
					c-3.5-3.6-5.7-8.9-5.8-16.7C106.5,86.9,110.8,99,118.6,101.3z M93.7,73.7c-9.4-7.2-35.3-5.6-45.5-0.2
					C71.4,67.1,84.9,70.4,93.7,73.7z M61.7,102c-4.5-0.8-6.4-3.3-7.7-7c-1.3-3.9-1.8-11.6-0.4-15.3c-1.8,4.2-1.1,12.4,0.3,16.5
					c1.6,4.8,4.5,7.2,17.3,6.5C67.7,102.7,64.2,102.4,61.7,102z M153,76.3c0-1.1-0.4-2.3-1.2-2.7c-10-5.4-35.1-6.9-44.9-0.2
					C120,68.1,139,67.3,153,76.3z"/>
			</g>
		</g>
	</g>
	<rect id="SvgjsRect1036" y="185" class="st46" width="200" height="15"/>
</g>
</svg>
